<mxfile host="app.diagrams.net" modified="2021-01-28T06:05:47.227Z" agent="5.0 (Macintosh; Intel Mac OS X 10_15_7) AppleWebKit/537.36 (KHTML, like Gecko) Chrome/88.0.4324.96 Safari/537.36 Edg/88.0.705.50" etag="SgSQOGTGIuMW24iN1bD5" version="14.2.7" type="github">
  <diagram id="C5RBs43oDa-KdzZeNtuy" name="Page-1">
    <mxGraphModel dx="946" dy="614" grid="1" gridSize="10" guides="1" tooltips="1" connect="1" arrows="1" fold="1" page="1" pageScale="1" pageWidth="827" pageHeight="1169" math="0" shadow="0">
      <root>
        <mxCell id="WIyWlLk6GJQsqaUBKTNV-0" />
        <mxCell id="WIyWlLk6GJQsqaUBKTNV-1" parent="WIyWlLk6GJQsqaUBKTNV-0" />
        <mxCell id="POMScIQi132-xRlTWO49-29" style="edgeStyle=orthogonalEdgeStyle;rounded=0;orthogonalLoop=1;jettySize=auto;html=1;" edge="1" parent="WIyWlLk6GJQsqaUBKTNV-1" source="POMScIQi132-xRlTWO49-4" target="POMScIQi132-xRlTWO49-8">
          <mxGeometry relative="1" as="geometry" />
        </mxCell>
        <mxCell id="POMScIQi132-xRlTWO49-4" value="Start Init" style="rounded=1;whiteSpace=wrap;html=1;" vertex="1" parent="WIyWlLk6GJQsqaUBKTNV-1">
          <mxGeometry x="550" y="120" width="120" height="30" as="geometry" />
        </mxCell>
        <mxCell id="POMScIQi132-xRlTWO49-28" style="edgeStyle=orthogonalEdgeStyle;rounded=0;orthogonalLoop=1;jettySize=auto;html=1;" edge="1" parent="WIyWlLk6GJQsqaUBKTNV-1" source="POMScIQi132-xRlTWO49-5" target="POMScIQi132-xRlTWO49-4">
          <mxGeometry relative="1" as="geometry" />
        </mxCell>
        <mxCell id="POMScIQi132-xRlTWO49-5" value="" style="ellipse;whiteSpace=wrap;html=1;aspect=fixed;fillColor=#000000;" vertex="1" parent="WIyWlLk6GJQsqaUBKTNV-1">
          <mxGeometry x="600" y="90" width="20" height="20" as="geometry" />
        </mxCell>
        <mxCell id="POMScIQi132-xRlTWO49-30" style="edgeStyle=orthogonalEdgeStyle;rounded=0;orthogonalLoop=1;jettySize=auto;html=1;" edge="1" parent="WIyWlLk6GJQsqaUBKTNV-1" source="POMScIQi132-xRlTWO49-8" target="POMScIQi132-xRlTWO49-9">
          <mxGeometry relative="1" as="geometry" />
        </mxCell>
        <mxCell id="POMScIQi132-xRlTWO49-8" value="Send Session Req" style="rounded=1;whiteSpace=wrap;html=1;" vertex="1" parent="WIyWlLk6GJQsqaUBKTNV-1">
          <mxGeometry x="550" y="190" width="120" height="20" as="geometry" />
        </mxCell>
        <mxCell id="POMScIQi132-xRlTWO49-31" style="edgeStyle=orthogonalEdgeStyle;rounded=0;orthogonalLoop=1;jettySize=auto;html=1;entryX=0.5;entryY=0;entryDx=0;entryDy=0;" edge="1" parent="WIyWlLk6GJQsqaUBKTNV-1" source="POMScIQi132-xRlTWO49-9" target="POMScIQi132-xRlTWO49-10">
          <mxGeometry relative="1" as="geometry" />
        </mxCell>
        <mxCell id="POMScIQi132-xRlTWO49-9" value="Check Response" style="rounded=1;whiteSpace=wrap;html=1;" vertex="1" parent="WIyWlLk6GJQsqaUBKTNV-1">
          <mxGeometry x="550" y="235" width="120" height="30" as="geometry" />
        </mxCell>
        <mxCell id="POMScIQi132-xRlTWO49-17" style="edgeStyle=orthogonalEdgeStyle;rounded=0;orthogonalLoop=1;jettySize=auto;html=1;entryX=0.5;entryY=0;entryDx=0;entryDy=0;" edge="1" parent="WIyWlLk6GJQsqaUBKTNV-1" source="POMScIQi132-xRlTWO49-10" target="POMScIQi132-xRlTWO49-13">
          <mxGeometry relative="1" as="geometry" />
        </mxCell>
        <mxCell id="POMScIQi132-xRlTWO49-19" style="edgeStyle=orthogonalEdgeStyle;rounded=0;orthogonalLoop=1;jettySize=auto;html=1;" edge="1" parent="WIyWlLk6GJQsqaUBKTNV-1" source="POMScIQi132-xRlTWO49-10" target="POMScIQi132-xRlTWO49-11">
          <mxGeometry relative="1" as="geometry" />
        </mxCell>
        <mxCell id="POMScIQi132-xRlTWO49-10" value="0x50?" style="rhombus;whiteSpace=wrap;html=1;fillColor=#FFFFFF;" vertex="1" parent="WIyWlLk6GJQsqaUBKTNV-1">
          <mxGeometry x="570" y="310" width="80" height="50" as="geometry" />
        </mxCell>
        <mxCell id="POMScIQi132-xRlTWO49-20" style="edgeStyle=orthogonalEdgeStyle;rounded=0;orthogonalLoop=1;jettySize=auto;html=1;entryX=0.5;entryY=0;entryDx=0;entryDy=0;" edge="1" parent="WIyWlLk6GJQsqaUBKTNV-1" source="POMScIQi132-xRlTWO49-11" target="POMScIQi132-xRlTWO49-12">
          <mxGeometry relative="1" as="geometry" />
        </mxCell>
        <mxCell id="POMScIQi132-xRlTWO49-11" value="Error Display" style="rounded=1;whiteSpace=wrap;html=1;" vertex="1" parent="WIyWlLk6GJQsqaUBKTNV-1">
          <mxGeometry x="680" y="320" width="120" height="30" as="geometry" />
        </mxCell>
        <mxCell id="POMScIQi132-xRlTWO49-12" value="" style="ellipse;whiteSpace=wrap;html=1;aspect=fixed;fillColor=#000000;" vertex="1" parent="WIyWlLk6GJQsqaUBKTNV-1">
          <mxGeometry x="730" y="380" width="20" height="20" as="geometry" />
        </mxCell>
        <mxCell id="POMScIQi132-xRlTWO49-16" style="edgeStyle=orthogonalEdgeStyle;rounded=0;orthogonalLoop=1;jettySize=auto;html=1;" edge="1" parent="WIyWlLk6GJQsqaUBKTNV-1" source="POMScIQi132-xRlTWO49-13" target="POMScIQi132-xRlTWO49-14">
          <mxGeometry relative="1" as="geometry" />
        </mxCell>
        <mxCell id="POMScIQi132-xRlTWO49-13" value="Wait4Resp" style="rounded=1;whiteSpace=wrap;html=1;" vertex="1" parent="WIyWlLk6GJQsqaUBKTNV-1">
          <mxGeometry x="550" y="400" width="120" height="30" as="geometry" />
        </mxCell>
        <mxCell id="POMScIQi132-xRlTWO49-15" style="edgeStyle=orthogonalEdgeStyle;rounded=0;orthogonalLoop=1;jettySize=auto;html=1;entryX=0;entryY=0.5;entryDx=0;entryDy=0;" edge="1" parent="WIyWlLk6GJQsqaUBKTNV-1" source="POMScIQi132-xRlTWO49-14" target="POMScIQi132-xRlTWO49-13">
          <mxGeometry relative="1" as="geometry">
            <mxPoint x="520" y="410" as="targetPoint" />
            <Array as="points">
              <mxPoint x="500" y="495" />
              <mxPoint x="500" y="415" />
            </Array>
          </mxGeometry>
        </mxCell>
        <mxCell id="POMScIQi132-xRlTWO49-25" style="edgeStyle=orthogonalEdgeStyle;rounded=0;orthogonalLoop=1;jettySize=auto;html=1;entryX=0.5;entryY=0;entryDx=0;entryDy=0;" edge="1" parent="WIyWlLk6GJQsqaUBKTNV-1" source="POMScIQi132-xRlTWO49-14" target="POMScIQi132-xRlTWO49-22">
          <mxGeometry relative="1" as="geometry" />
        </mxCell>
        <mxCell id="POMScIQi132-xRlTWO49-14" value="All Sent?" style="rhombus;whiteSpace=wrap;html=1;fillColor=#FFFFFF;" vertex="1" parent="WIyWlLk6GJQsqaUBKTNV-1">
          <mxGeometry x="570" y="470" width="80" height="50" as="geometry" />
        </mxCell>
        <mxCell id="POMScIQi132-xRlTWO49-18" value="No" style="text;html=1;align=center;verticalAlign=middle;resizable=0;points=[];autosize=1;" vertex="1" parent="WIyWlLk6GJQsqaUBKTNV-1">
          <mxGeometry x="525" y="450" width="30" height="20" as="geometry" />
        </mxCell>
        <mxCell id="POMScIQi132-xRlTWO49-26" style="edgeStyle=orthogonalEdgeStyle;rounded=0;orthogonalLoop=1;jettySize=auto;html=1;" edge="1" parent="WIyWlLk6GJQsqaUBKTNV-1" source="POMScIQi132-xRlTWO49-22" target="POMScIQi132-xRlTWO49-23">
          <mxGeometry relative="1" as="geometry" />
        </mxCell>
        <mxCell id="POMScIQi132-xRlTWO49-22" value="Display All" style="rounded=1;whiteSpace=wrap;html=1;" vertex="1" parent="WIyWlLk6GJQsqaUBKTNV-1">
          <mxGeometry x="550" y="550" width="120" height="30" as="geometry" />
        </mxCell>
        <mxCell id="POMScIQi132-xRlTWO49-24" style="edgeStyle=orthogonalEdgeStyle;rounded=0;orthogonalLoop=1;jettySize=auto;html=1;" edge="1" parent="WIyWlLk6GJQsqaUBKTNV-1" source="POMScIQi132-xRlTWO49-23" target="POMScIQi132-xRlTWO49-13">
          <mxGeometry relative="1" as="geometry">
            <Array as="points">
              <mxPoint x="460" y="655" />
              <mxPoint x="460" y="415" />
            </Array>
          </mxGeometry>
        </mxCell>
        <mxCell id="POMScIQi132-xRlTWO49-23" value="Clean AllSent Flag" style="rounded=1;whiteSpace=wrap;html=1;" vertex="1" parent="WIyWlLk6GJQsqaUBKTNV-1">
          <mxGeometry x="550" y="640" width="120" height="30" as="geometry" />
        </mxCell>
        <mxCell id="POMScIQi132-xRlTWO49-27" value="Wait4Resp" style="rounded=1;whiteSpace=wrap;html=1;" vertex="1" parent="WIyWlLk6GJQsqaUBKTNV-1">
          <mxGeometry x="100" y="90" width="120" height="30" as="geometry" />
        </mxCell>
        <mxCell id="POMScIQi132-xRlTWO49-32" value="Position = 0" style="rounded=1;whiteSpace=wrap;html=1;fillColor=#FFFFFF;" vertex="1" parent="WIyWlLk6GJQsqaUBKTNV-1">
          <mxGeometry x="100" y="140" width="120" height="30" as="geometry" />
        </mxCell>
        <mxCell id="POMScIQi132-xRlTWO49-33" value="Stucture Cmd[Position]" style="rounded=1;whiteSpace=wrap;html=1;fillColor=#FFFFFF;" vertex="1" parent="WIyWlLk6GJQsqaUBKTNV-1">
          <mxGeometry x="100" y="190" width="120" height="50" as="geometry" />
        </mxCell>
        <mxCell id="POMScIQi132-xRlTWO49-34" value="Send CAN MSG&lt;br&gt;CanSetMsg with CMD[Position]-&amp;gt;SentBuf" style="rounded=1;whiteSpace=wrap;html=1;fillColor=#FFFFFF;" vertex="1" parent="WIyWlLk6GJQsqaUBKTNV-1">
          <mxGeometry x="70" y="250" width="180" height="50" as="geometry" />
        </mxCell>
        <mxCell id="POMScIQi132-xRlTWO49-38" style="edgeStyle=orthogonalEdgeStyle;rounded=0;orthogonalLoop=1;jettySize=auto;html=1;entryX=0.5;entryY=0;entryDx=0;entryDy=0;" edge="1" parent="WIyWlLk6GJQsqaUBKTNV-1" source="POMScIQi132-xRlTWO49-36" target="POMScIQi132-xRlTWO49-37">
          <mxGeometry relative="1" as="geometry" />
        </mxCell>
        <mxCell id="POMScIQi132-xRlTWO49-36" value="Check Interrupt flag&lt;br&gt;CMD[Postion]-&amp;gt;Flag == true?" style="rounded=1;whiteSpace=wrap;html=1;fillColor=#FFFFFF;" vertex="1" parent="WIyWlLk6GJQsqaUBKTNV-1">
          <mxGeometry x="70" y="320" width="180" height="50" as="geometry" />
        </mxCell>
        <mxCell id="POMScIQi132-xRlTWO49-39" style="edgeStyle=orthogonalEdgeStyle;rounded=0;orthogonalLoop=1;jettySize=auto;html=1;entryX=0;entryY=0.25;entryDx=0;entryDy=0;" edge="1" parent="WIyWlLk6GJQsqaUBKTNV-1" source="POMScIQi132-xRlTWO49-37" target="POMScIQi132-xRlTWO49-36">
          <mxGeometry relative="1" as="geometry">
            <Array as="points">
              <mxPoint x="50" y="415" />
              <mxPoint x="50" y="333" />
            </Array>
          </mxGeometry>
        </mxCell>
        <mxCell id="POMScIQi132-xRlTWO49-51" style="edgeStyle=orthogonalEdgeStyle;rounded=0;orthogonalLoop=1;jettySize=auto;html=1;" edge="1" parent="WIyWlLk6GJQsqaUBKTNV-1" source="POMScIQi132-xRlTWO49-37" target="POMScIQi132-xRlTWO49-41">
          <mxGeometry relative="1" as="geometry" />
        </mxCell>
        <mxCell id="POMScIQi132-xRlTWO49-37" value="True?" style="rhombus;whiteSpace=wrap;html=1;fillColor=#FFFFFF;" vertex="1" parent="WIyWlLk6GJQsqaUBKTNV-1">
          <mxGeometry x="120" y="390" width="80" height="40" as="geometry" />
        </mxCell>
        <mxCell id="POMScIQi132-xRlTWO49-40" value="No" style="text;html=1;align=center;verticalAlign=middle;resizable=0;points=[];autosize=1;" vertex="1" parent="WIyWlLk6GJQsqaUBKTNV-1">
          <mxGeometry x="75" y="400" width="30" height="20" as="geometry" />
        </mxCell>
        <mxCell id="POMScIQi132-xRlTWO49-52" style="edgeStyle=orthogonalEdgeStyle;rounded=0;orthogonalLoop=1;jettySize=auto;html=1;" edge="1" parent="WIyWlLk6GJQsqaUBKTNV-1" source="POMScIQi132-xRlTWO49-41" target="POMScIQi132-xRlTWO49-43">
          <mxGeometry relative="1" as="geometry" />
        </mxCell>
        <mxCell id="POMScIQi132-xRlTWO49-41" value="Receive CAN MSG&lt;br&gt;CanGetMsg with CMD[Position]-&amp;gt;GetBuf" style="rounded=1;whiteSpace=wrap;html=1;fillColor=#FFFFFF;" vertex="1" parent="WIyWlLk6GJQsqaUBKTNV-1">
          <mxGeometry x="70" y="450" width="180" height="50" as="geometry" />
        </mxCell>
        <mxCell id="POMScIQi132-xRlTWO49-53" style="edgeStyle=orthogonalEdgeStyle;rounded=0;orthogonalLoop=1;jettySize=auto;html=1;" edge="1" parent="WIyWlLk6GJQsqaUBKTNV-1" source="POMScIQi132-xRlTWO49-43" target="POMScIQi132-xRlTWO49-44">
          <mxGeometry relative="1" as="geometry" />
        </mxCell>
        <mxCell id="POMScIQi132-xRlTWO49-43" value="If Respond SID == 0x62" style="rounded=1;whiteSpace=wrap;html=1;fillColor=#FFFFFF;" vertex="1" parent="WIyWlLk6GJQsqaUBKTNV-1">
          <mxGeometry x="87.5" y="550" width="145" height="30" as="geometry" />
        </mxCell>
        <mxCell id="POMScIQi132-xRlTWO49-47" style="edgeStyle=orthogonalEdgeStyle;rounded=0;orthogonalLoop=1;jettySize=auto;html=1;entryX=0;entryY=0.5;entryDx=0;entryDy=0;" edge="1" parent="WIyWlLk6GJQsqaUBKTNV-1" source="POMScIQi132-xRlTWO49-44" target="POMScIQi132-xRlTWO49-45">
          <mxGeometry relative="1" as="geometry" />
        </mxCell>
        <mxCell id="POMScIQi132-xRlTWO49-54" style="edgeStyle=orthogonalEdgeStyle;rounded=0;orthogonalLoop=1;jettySize=auto;html=1;" edge="1" parent="WIyWlLk6GJQsqaUBKTNV-1" source="POMScIQi132-xRlTWO49-44" target="POMScIQi132-xRlTWO49-46">
          <mxGeometry relative="1" as="geometry" />
        </mxCell>
        <mxCell id="POMScIQi132-xRlTWO49-57" value="" style="edgeStyle=orthogonalEdgeStyle;rounded=0;orthogonalLoop=1;jettySize=auto;html=1;" edge="1" parent="WIyWlLk6GJQsqaUBKTNV-1" source="POMScIQi132-xRlTWO49-44" target="POMScIQi132-xRlTWO49-43">
          <mxGeometry relative="1" as="geometry" />
        </mxCell>
        <mxCell id="POMScIQi132-xRlTWO49-44" value="True?" style="rhombus;whiteSpace=wrap;html=1;fillColor=#FFFFFF;" vertex="1" parent="WIyWlLk6GJQsqaUBKTNV-1">
          <mxGeometry x="125" y="610" width="80" height="50" as="geometry" />
        </mxCell>
        <mxCell id="POMScIQi132-xRlTWO49-61" style="edgeStyle=orthogonalEdgeStyle;rounded=0;orthogonalLoop=1;jettySize=auto;html=1;entryX=1;entryY=0.5;entryDx=0;entryDy=0;" edge="1" parent="WIyWlLk6GJQsqaUBKTNV-1" source="POMScIQi132-xRlTWO49-45" target="POMScIQi132-xRlTWO49-58">
          <mxGeometry relative="1" as="geometry">
            <Array as="points">
              <mxPoint x="414" y="915" />
            </Array>
          </mxGeometry>
        </mxCell>
        <mxCell id="POMScIQi132-xRlTWO49-45" value="Set Display Value= Error" style="rounded=1;whiteSpace=wrap;html=1;fillColor=#FFFFFF;" vertex="1" parent="WIyWlLk6GJQsqaUBKTNV-1">
          <mxGeometry x="354" y="670" width="120" height="50" as="geometry" />
        </mxCell>
        <mxCell id="POMScIQi132-xRlTWO49-49" style="edgeStyle=orthogonalEdgeStyle;rounded=0;orthogonalLoop=1;jettySize=auto;html=1;entryX=0;entryY=0.75;entryDx=0;entryDy=0;" edge="1" parent="WIyWlLk6GJQsqaUBKTNV-1" source="POMScIQi132-xRlTWO49-46" target="POMScIQi132-xRlTWO49-45">
          <mxGeometry relative="1" as="geometry" />
        </mxCell>
        <mxCell id="POMScIQi132-xRlTWO49-55" style="edgeStyle=orthogonalEdgeStyle;rounded=0;orthogonalLoop=1;jettySize=auto;html=1;entryX=0.5;entryY=0;entryDx=0;entryDy=0;" edge="1" parent="WIyWlLk6GJQsqaUBKTNV-1" source="POMScIQi132-xRlTWO49-46" target="POMScIQi132-xRlTWO49-48">
          <mxGeometry relative="1" as="geometry" />
        </mxCell>
        <mxCell id="POMScIQi132-xRlTWO49-46" value="&lt;font style=&quot;font-size: 9px&quot;&gt;Check Function Code == CMD[Position]-&amp;gt;FunctionCode&lt;/font&gt;" style="rounded=1;whiteSpace=wrap;html=1;fillColor=#FFFFFF;" vertex="1" parent="WIyWlLk6GJQsqaUBKTNV-1">
          <mxGeometry x="82.5" y="683" width="165" height="47" as="geometry" />
        </mxCell>
        <mxCell id="POMScIQi132-xRlTWO49-56" style="edgeStyle=orthogonalEdgeStyle;rounded=0;orthogonalLoop=1;jettySize=auto;html=1;entryX=0.5;entryY=0;entryDx=0;entryDy=0;" edge="1" parent="WIyWlLk6GJQsqaUBKTNV-1" source="POMScIQi132-xRlTWO49-48" target="POMScIQi132-xRlTWO49-50">
          <mxGeometry relative="1" as="geometry" />
        </mxCell>
        <mxCell id="POMScIQi132-xRlTWO49-48" value="True?" style="rhombus;whiteSpace=wrap;html=1;fillColor=#FFFFFF;" vertex="1" parent="WIyWlLk6GJQsqaUBKTNV-1">
          <mxGeometry x="125" y="760" width="80" height="30" as="geometry" />
        </mxCell>
        <mxCell id="POMScIQi132-xRlTWO49-59" style="edgeStyle=orthogonalEdgeStyle;rounded=0;orthogonalLoop=1;jettySize=auto;html=1;entryX=0.5;entryY=0;entryDx=0;entryDy=0;" edge="1" parent="WIyWlLk6GJQsqaUBKTNV-1" source="POMScIQi132-xRlTWO49-50" target="POMScIQi132-xRlTWO49-58">
          <mxGeometry relative="1" as="geometry" />
        </mxCell>
        <mxCell id="POMScIQi132-xRlTWO49-50" value="Set Value to CMD[Postion]-&amp;gt;Respone Value" style="rounded=1;whiteSpace=wrap;html=1;fillColor=#FFFFFF;" vertex="1" parent="WIyWlLk6GJQsqaUBKTNV-1">
          <mxGeometry x="82.5" y="820" width="165" height="50" as="geometry" />
        </mxCell>
        <mxCell id="POMScIQi132-xRlTWO49-60" style="edgeStyle=orthogonalEdgeStyle;rounded=0;orthogonalLoop=1;jettySize=auto;html=1;entryX=0;entryY=0.5;entryDx=0;entryDy=0;exitX=0.5;exitY=1;exitDx=0;exitDy=0;" edge="1" parent="WIyWlLk6GJQsqaUBKTNV-1" source="POMScIQi132-xRlTWO49-58" target="POMScIQi132-xRlTWO49-33">
          <mxGeometry relative="1" as="geometry">
            <mxPoint x="20" y="260" as="targetPoint" />
            <Array as="points">
              <mxPoint x="165" y="980" />
              <mxPoint x="20" y="980" />
              <mxPoint x="20" y="215" />
            </Array>
          </mxGeometry>
        </mxCell>
        <mxCell id="POMScIQi132-xRlTWO49-58" value="Position ++" style="rounded=1;whiteSpace=wrap;html=1;fillColor=#FFFFFF;" vertex="1" parent="WIyWlLk6GJQsqaUBKTNV-1">
          <mxGeometry x="92.5" y="900" width="145" height="30" as="geometry" />
        </mxCell>
      </root>
    </mxGraphModel>
  </diagram>
</mxfile>
